<svg width="200" height="200" viewBox="0 0 200 200" fill="none" xmlns="http://www.w3.org/2000/svg">
  <!-- Vase -->
  <path d="M60 80 L70 50 L130 50 L140 80 Q140 100, 120 120 L80 120 Q60 100, 60 80 Z" fill="#E0E0E0" stroke="#000" stroke-width="8"/>
  
  <!-- Flower stem 1 -->
  <path d="M85 120 Q80 100, 85 70" fill="none" stroke="#2a0845" stroke-width="6" stroke-linecap="round"/>
  <circle cx="82" cy="60" r="12" fill="#FF1493" stroke="#000" stroke-width="4"/>
  <circle cx="70" cy="55" r="8" fill="#FF1493" stroke="#000" stroke-width="3"/>
  <circle cx="95" cy="55" r="8" fill="#FF1493" stroke="#000" stroke-width="3"/>
  
  <!-- Flower stem 2 -->
  <path d="M100 120 Q100 90, 100 60" fill="none" stroke="#2a0845" stroke-width="6" stroke-linecap="round"/>
  <circle cx="100" cy="50" r="14" fill="#8B0A50" stroke="#000" stroke-width="4"/>
  <circle cx="85" cy="48" r="8" fill="#8B0A50" stroke="#000" stroke-width="3"/>
  <circle cx="115" cy="48" r="8" fill="#8B0A50" stroke="#000" stroke-width="3"/>
  
  <!-- Flower stem 3 -->
  <path d="M115 120 Q120 100, 115 70" fill="none" stroke="#2a0845" stroke-width="6" stroke-linecap="round"/>
  <circle cx="118" cy="60" r="12" fill="#FF1493" stroke="#000" stroke-width="4"/>
  <circle cx="130" cy="55" r="8" fill="#FF1493" stroke="#000" stroke-width="3"/>
  <circle cx="105" cy="55" r="8" fill="#FF1493" stroke="#000" stroke-width="3"/>
  
  <!-- Leaves -->
  <path d="M80 100 Q70 95, 65 85" fill="none" stroke="#2a0845" stroke-width="5" stroke-linecap="round"/>
  <path d="M120 100 Q130 95, 135 85" fill="none" stroke="#2a0845" stroke-width="5" stroke-linecap="round"/>
  
  <!-- Base -->
  <rect x="70" y="120" width="60" height="20" fill="#B0B0B0" stroke="#000" stroke-width="6"/>
</svg>